# xmcd
#
# Track frame offsets:
#	150
#	13610
#	28913
#	62500
#	91450
#	126628
#
# Disc length: 2016 seconds
#
# Revision: 1
# Processed by: cddbd v1.5.1PL0 Copyright (c) Steve Scherf et al.
# Submitted via: EasyCDDAExtractor 7.0.5.1
#
DISCID=4e07de06
DTITLE=Magnolia - It's All Vain
DYEAR=2004
DGENRE=Dance
TTITLE0=It's All Vain (Original Radio Edit)
TTITLE1=It's All Vain (Innervisions Radio Edit)
TTITLE2=It's All Vain (Innevisions Mix)
TTITLE3=It's All Vain (Original Mix)
TTITLE4=It's All Vain (Innervisions Overload Mix)
TTITLE5=It's All Vain (Original Album Version)
EXTD=
EXTT0=
EXTT1=
EXTT2=
EXTT3=
EXTT4=
EXTT5=
PLAYORDER=
